<?xml version="1.0" encoding="windows-1252"?>
<!-- Uploaded to: SVG Repo, www.svgrepo.com, Generator: SVG Repo Mixer Tools -->
<svg version="1.1" id="Layer_1" xmlns="http://www.w3.org/2000/svg" xmlns:xlink="http://www.w3.org/1999/xlink"
	viewBox="0 0 496.2 496.2" xml:space="preserve">
	<g>
		<!-- <rect fill="#222" x="98.1" y="98.1" width="300" height="300" rx="64" />"/> -->
		<rect fill="#444" width="496.2" height="496.2" />"/>
		<!-- <path style="fill:#444;"
			d="M0,248.1C0,111.1,111.1,0,248.1,0s248.1,111.1,248.1,248.1S385.1,496.2,248.1,496.2S0,385.1,0,248.1z  " /> -->
	</g>
	<g>
		<path style="fill:#111;" transform="translate(3 3)"
			d="M419.6,346.9c0,7.1-5.6,12.8-12.6,12.8H89.2c-6.9,0-12.6-5.7-12.6-12.8V149.3  c0-7.1,5.6-12.8,12.6-12.8h317.9c6.9,0,12.6,5.7,12.6,12.8v197.6H419.6z" />
		<path style="fill:#222;" d="M419.6,346.9c0,7.1-5.6,12.8-12.6,12.8H89.2c-6.9,0-12.6-5.7-12.6-12.8V149.3
		c0-7.1,5.6-12.8,12.6-12.8h317.9c6.9,0,12.6,5.7,12.6,12.8v197.6H419.6z" />
	</g>
	<g>
		<path style="fill:#aaa;"
			d="M259.9,223c0,2-1.6,3.7-3.7,3.7H240c-2,0-3.7-1.6-3.7-3.7v-16.2c0-2,1.6-3.7,3.7-3.7h16.2   c2,0,3.7,1.6,3.7,3.7V223z" />
		<path style="fill:#aaa;"
			d="M259.9,289.4c0,2-1.6,3.7-3.7,3.7H240c-2,0-3.7-1.6-3.7-3.7v-16.2c0-2,1.6-3.7,3.7-3.7h16.2   c2,0,3.7,1.6,3.7,3.7V289.4z" />
	</g>
	<!-- <path style="fill:#111;" d="M219.6,327.7c0,6.5-5.1,11.7-11.5,11.7H107.9c-6.3,0-11.5-5.2-11.5-11.7V168.5  c0-6.5,5.1-11.7,11.5-11.7h100.2c6.3,0,11.5,5.2,11.5,11.7V327.7z"/> -->
	<!-- <path style="fill:#222;" d="M208.2,156.7H107.9c-6.3,0-11.5,5.2-11.5,11.7v79.9h123.2v-79.9C219.6,162,214.5,156.7,208.2,156.7z"/> -->
	<path style="fill:#0f0;"
		d="M149.7,306.5V204.4h-6.9c-2.1,0-3.8-0.7-5.2-2.2c-1.4-1.4-2.2-3.2-2.2-5.2c0-2.1,0.7-3.8,2.2-5.2  c1.4-1.4,3.2-2.2,5.2-2.2h21.7v116.9L149.7,306.5L149.7,306.5z" />
	<!-- <rect x="96.5" y="245.8" style="fill:#424241;" width="123.2" height="5.1"/> -->
	<!-- <path style="fill:#222;" d="M401.1,326.4c0,6.5-5.1,11.7-11.5,11.7H289.4c-6.3,0-11.5-5.2-11.5-11.7V167.1  c0-6.5,5.1-11.7,11.5-11.7h100.2c6.3,0,11.5,5.2,11.5,11.7V326.4z"/> -->
	<!-- <path style="fill:#333;" d="M389.6,155.4H289.4c-6.3,0-11.5,5.2-11.5,11.7v81.3h123.2v-81.3C401.1,160.6,396,155.4,389.6,155.4z"/> -->
	<path style="fill:#f00;"
		d="M375.8,204.4v27.7c0,6.5-2,11.7-6,15.7c4.1,4.6,6.2,9.6,6.2,15v28.9c0,4.1-1.5,7.5-4.4,10.4  s-6.5,4.4-10.6,4.4h-52.3c-2.1,0-3.8-0.7-5.2-2.2c-1.4-1.4-2.2-3.2-2.2-5.2c0-2.1,0.7-3.8,2.2-5.2c1.4-1.4,3.2-2.2,5.2-2.2h52.1  v-28.9c0-2.1-0.7-3.8-2.2-5.3s-3.2-2.2-5.2-2.2h-29.8c-2.1,0-3.8-0.7-5.2-2.1c-1.4-1.4-2.2-3.2-2.2-5.3c0-2.1,0.7-3.8,2.2-5.2  c1.4-1.4,3.2-2.2,5.2-2.2h29.9c2,0,3.7-0.7,5.2-2.2c1.5-1.4,2.2-3.2,2.2-5.2v-28.6h-52.8c-2.1,0-3.8-0.7-5.2-2.2  c-1.4-1.4-2.2-3.2-2.2-5.2c0-2.1,0.7-3.8,2.2-5.2c1.4-1.4,3.2-2.2,5.2-2.2h52.8c4.1,0,7.6,1.5,10.5,4.4  C374.3,196.9,375.8,200.3,375.8,204.4z" />
	<!-- <rect x="277.9" y="245.8" style="fill:#424241;" width="123.2" height="5.1"/> -->
</svg>